<?xml version="1.0" encoding="utf-8"?>
<!-- Generator: Adobe Illustrator 24.2.1, SVG Export Plug-In . SVG Version: 6.00 Build 0)  -->
<svg version="1.1" id="Layer_1" xmlns="http://www.w3.org/2000/svg" xmlns:xlink="http://www.w3.org/1999/xlink" x="0px" y="0px"
	 viewBox="0 0 3000 3000" style="enable-background:new 0 0 3000 3000;" xml:space="preserve">
<style type="text/css">
	.st0{fill:none;}
	.st1{fill:#F5F5F5;}
	.st2{fill:#FFFF4D;}
</style>
<rect x="-0.3" y="-0.3" class="st0" width="3000" height="3000"/>
<g>
	<g>
		<path class="st1" d="M444,1443c-16.4,26.5-42.9,45.4-79.4,56.7c36.5,11.3,63,30.2,79.4,56.7c16.4,26.5,24.6,65.6,24.6,117.2v414
			c0,98.3,46.6,147.5,139.9,147.5h47.3v149.4h-83.2c-94.5,0-165.8-23.6-213.6-70.9c-47.9-47.3-71.8-116.9-71.8-208.9v-434.8
			c0-63-28.4-94.5-85.1-94.5h-66.2v-151.2H202c56.7,0,85.1-31.5,85.1-94.5V894.7c0-92,23.9-161.6,71.8-208.9
			c47.9-47.3,119.1-70.9,213.6-70.9h83.2v149.4h-47.3c-93.3,0-139.9,49.2-139.9,147.5v414C468.6,1377.5,460.3,1416.5,444,1443z"/>
	</g>
	<g>
		<path class="st1" d="M2555.5,1556.4c16.4-26.5,42.9-45.4,79.4-56.7c-36.5-11.3-63-30.2-79.4-56.7c-16.4-26.5-24.6-65.6-24.6-117.2
			v-414c0-98.3-46.6-147.5-139.9-147.5h-47.3V614.9h83.2c94.5,0,165.8,23.6,213.6,70.9c47.9,47.3,71.8,116.9,71.8,208.9v434.8
			c0,63,28.4,94.5,85.1,94.5h66.2v151.2h-66.2c-56.7,0-85.1,31.5-85.1,94.5v434.8c0,92-23.9,161.6-71.8,208.9
			c-47.9,47.3-119.1,70.9-213.6,70.9h-83.2v-149.4h47.3c93.3,0,139.9-49.2,139.9-147.5v-414
			C2530.9,1622,2539.1,1582.9,2555.5,1556.4z"/>
	</g>
	<g>
		<g>
			<path class="st2" d="M819.3,1067.2L819.3,1067.2c-53.9,0-98,44.1-98,98v669c0,53.9,44.1,98,98,98l0,0c53.9,0,98-44.1,98-98v-669
				C917.3,1111.3,873.2,1067.2,819.3,1067.2z"/>
			<path class="st2" d="M2180.1,1067.2L2180.1,1067.2c-53.9,0-98,44.1-98,98v669c0,53.9,44.1,98,98,98l0,0c53.9,0,98-44.1,98-98
				v-669C2278.2,1111.3,2234,1067.2,2180.1,1067.2z"/>
			<path class="st2" d="M1935.1,983.8L1935.1,983.8c-53.9,0-98,44.1-98,98v338.8h-674.6v-338.8c0-53.9-44.1-98-98-98l0,0
				c-53.9,0-98,44.1-98,98v835.8c0,53.9,44.1,98,98,98l0,0c53.9,0,98-44.1,98-98v-338.8H1837v338.8c0,53.9,44.1,98,98,98l0,0
				c53.9,0,98-44.1,98-98v-835.8C2033.1,1027.9,1989,983.8,1935.1,983.8z"/>
		</g>
	</g>
</g>
</svg>
